HIERARCHY
ROOT joint_Root
{
	OFFSET 0.0 0.0 0.0
	CHANNELS 6 Xposition Yposition Zposition Zrotation Xrotation Yrotation 
	JOINT Hips
	{
		OFFSET -0.726466 93.3139 -2.00062
		CHANNELS 6 Xposition Yposition Zposition Zrotation Xrotation Yrotation 
		JOINT Spine
		{
			OFFSET 15.7357 0.0 0.0
			CHANNELS 6 Xposition Yposition Zposition Zrotation Xrotation Yrotation 
			JOINT Chest
			{
				OFFSET 8.98455 -0.406207 0.0
				CHANNELS 6 Xposition Yposition Zposition Zrotation Xrotation Yrotation 
				JOINT Neck
				{
					OFFSET 16.3773 0.0 0.0
					CHANNELS 6 Xposition Yposition Zposition Zrotation Xrotation Yrotation 
					JOINT Head
					{
						OFFSET 6.45672 0.0 0.0
						CHANNELS 6 Xposition Yposition Zposition Zrotation Xrotation Yrotation 
						End Site
						{
							OFFSET 0.0 0.0 0.0
						}
					}
				}
				JOINT Shoulder_L
				{
					OFFSET 12.9942 -0.242716 4.98039
					CHANNELS 6 Xposition Yposition Zposition Zrotation Xrotation Yrotation 
					JOINT UpperArm_L
					{
						OFFSET 5.34809 0.0 0.0
						CHANNELS 6 Xposition Yposition Zposition Zrotation Xrotation Yrotation 
						JOINT LowerArm_L
						{
							OFFSET 24.3286 1.87007e-05 0.0
							CHANNELS 6 Xposition Yposition Zposition Zrotation Xrotation Yrotation 
							JOINT Hand_L
							{
								OFFSET 22.2916 0.0 0.0
								CHANNELS 6 Xposition Yposition Zposition Zrotation Xrotation Yrotation 
								End Site
								{
									OFFSET 0.0 0.0 0.0
								}
							}
						}
					}
				}
				JOINT Shoulder_R
				{
					OFFSET 12.9945 -0.242716 -4.98039
					CHANNELS 6 Xposition Yposition Zposition Zrotation Xrotation Yrotation 
					JOINT UpperArm_R
					{
						OFFSET -5.34813 0.0 0.0
						CHANNELS 6 Xposition Yposition Zposition Zrotation Xrotation Yrotation 
						JOINT LowerArm_R
						{
							OFFSET -24.3289 0.000322201 0.0
							CHANNELS 6 Xposition Yposition Zposition Zrotation Xrotation Yrotation 
							JOINT Hand_R
							{
								OFFSET -22.2915 -0.000108084 0.0
								CHANNELS 6 Xposition Yposition Zposition Zrotation Xrotation Yrotation 
								End Site
								{
									OFFSET 0.0 0.0 0.0
								}
							}
						}
					}
				}
			}
		}
		JOINT UpperLeg_L
		{
			OFFSET -2.19248 -6.46944 0.0
			CHANNELS 6 Xposition Yposition Zposition Zrotation Xrotation Yrotation 
			JOINT LowerLeg_L
			{
				OFFSET 39.0811 0.0 -1.23785e-05
				CHANNELS 6 Xposition Yposition Zposition Zrotation Xrotation Yrotation 
				JOINT Foot_L
				{
					OFFSET 40.9854 0.0 -1.26872e-05
					CHANNELS 6 Xposition Yposition Zposition Zrotation Xrotation Yrotation 
					JOINT Toes_L
					{
						OFFSET 11.7543 0.0 0.0
						CHANNELS 6 Xposition Yposition Zposition Zrotation Xrotation Yrotation 
						End Site
						{
							OFFSET 0.0 0.0 0.0
						}
					}
				}
			}
		}
		JOINT UpperLeg_R
		{
			OFFSET -2.19251 6.46944 0.0
			CHANNELS 6 Xposition Yposition Zposition Zrotation Xrotation Yrotation 
			JOINT LowerLeg_R
			{
				OFFSET -39.0811 -0.00228153 -0.0401928
				CHANNELS 6 Xposition Yposition Zposition Zrotation Xrotation Yrotation 
				JOINT Foot_R
				{
					OFFSET -40.9854 0.0 0.0
					CHANNELS 6 Xposition Yposition Zposition Zrotation Xrotation Yrotation 
					JOINT Toes_R
					{
						OFFSET -11.7543 0.0 0.0
						CHANNELS 6 Xposition Yposition Zposition Zrotation Xrotation Yrotation 
						End Site
						{
							OFFSET 0.0 0.0 0.0
						}
					}
				}
			}
		}
	}
}
MOTION
Frames:	5
Frame Time:	0.0333333
0.000000 0.000000 0.000000 0.000000 0.000000 -0.000000 -0.823041 92.242600 -0.816783 87.921700 0.444675 -0.299591 15.735700 0.000005 -0.000001 78.838900 87.488100 -78.646100 8.984550 -0.406207 -0.000000 -2.835820 -0.989895 0.361113 16.377300 -0.000001 -0.000001 -1.508620 -1.718390 -0.434095 6.456720 -0.000001 -0.000000 -2.334120 -0.966880 4.849660 12.994200 -0.242716 4.980390 -89.309900 -1.798150 -69.001100 5.348090 -0.000007 -0.000001 -68.736400 30.439100 -8.807350 24.328600 0.000019 0.000005 1.865350 3.741450 -26.522700 22.291600 -0.000001 0.000005 6.451520 5.562910 -9.330710 12.994500 -0.242716 -4.980390 87.645800 5.738920 -67.650400 -5.348130 -0.000001 -0.000004 -67.215100 21.392400 -6.576160 -24.328900 0.000322 -0.000009 -0.430321 -1.117910 -21.007900 -22.291500 -0.000108 -0.000004 7.158610 5.529860 -7.789210 -2.192480 -6.469440 -0.000000 -169.802000 -15.515700 -5.709430 39.081100 -0.000007 -0.000012 -0.161298 0.452997 19.599400 40.985400 -0.000006 -0.000013 -7.015770 0.527546 -62.376700 11.754300 -0.000000 0.000003 -0.000152 -0.001467 -16.633300 -2.192510 6.469440 -0.000001 175.066000 20.918800 177.382000 -39.081100 -0.002282 -0.040193 -0.015260 0.060798 16.999100 -40.985400 0.000008 0.000006 -3.161910 1.900200 -62.669500 -11.754300 -0.000006 -0.000006 -0.003920 -0.050604 -18.631500
0.000000 0.000000 0.000000 0.000000 0.000000 -0.000000 -0.847764 92.261800 -0.900430 87.915800 0.431102 -0.403875 15.735700 0.000005 -0.000001 79.156300 87.496300 -78.985000 8.984550 -0.406207 -0.000000 -2.846730 -0.957546 0.318737 16.377300 -0.000001 -0.000001 -1.910190 -1.698430 -0.389770 6.456720 -0.000001 -0.000000 -2.806530 -1.014780 4.965020 12.994200 -0.242716 4.980390 -89.258000 -1.915380 -68.819900 5.348090 -0.000007 -0.000001 -67.786400 28.171400 -8.629640 24.328600 0.000019 0.000005 1.992290 3.897540 -27.100800 22.291600 -0.000001 0.000005 6.870810 5.563120 -9.342330 12.994500 -0.242716 -4.980390 87.753900 5.425530 -67.470700 -5.348130 -0.000001 -0.000004 -66.999500 19.381100 -6.359450 -24.328900 0.000322 -0.000009 -0.297118 -0.754664 -21.423600 -22.291500 -0.000108 -0.000004 8.499400 5.534380 -7.987100 -2.192480 -6.469440 -0.000000 -169.841000 -15.527000 -5.829390 39.081100 -0.000007 -0.000012 -0.156718 0.442672 19.495600 40.985400 -0.000006 -0.000013 -7.010640 0.485346 -62.263400 11.754300 -0.000000 0.000003 -0.000143 -0.001395 -16.630600 -2.192510 6.469440 -0.000001 175.176000 20.923100 177.215000 -39.081100 -0.002282 -0.040193 -0.011903 0.049932 16.962100 -40.985400 0.000008 0.000006 -3.049340 1.846720 -62.601600 -11.754300 -0.000006 -0.000006 -0.003991 -0.051352 -18.661900
0.000000 0.000000 0.000000 0.000000 0.000000 -0.000000 -0.880103 92.287000 -0.979620 87.895700 0.475137 -0.488380 15.735700 0.000005 -0.000001 79.307100 87.507700 -79.151700 8.984550 -0.406207 -0.000000 -2.866800 -0.938932 0.287384 16.377300 -0.000001 -0.000001 -2.267620 -1.679950 -0.377889 6.456720 -0.000001 -0.000000 -3.307940 -1.019490 5.088210 12.994200 -0.242716 4.980390 -89.145000 -2.182110 -68.597900 5.348090 -0.000007 -0.000001 -66.497300 25.185100 -8.646580 24.328600 0.000019 0.000005 2.254990 4.376270 -27.295300 22.291600 -0.000001 0.000005 7.739690 5.559490 -9.165810 12.994500 -0.242716 -4.980390 87.884100 5.033500 -67.164600 -5.348130 -0.000001 -0.000004 -66.405600 16.625000 -6.278430 -24.328900 0.000322 -0.000009 -0.004931 -0.009670 -21.850400 -22.291500 -0.000108 -0.000004 9.693570 5.529590 -7.779040 -2.192480 -6.469440 -0.000000 -169.836000 -15.474400 -5.889710 39.081100 -0.000007 -0.000012 -0.153522 0.438113 19.311400 40.985400 -0.000006 -0.000013 -7.023380 0.469648 -62.114600 11.754300 -0.000000 0.000003 -0.000125 -0.001242 -16.625000 -2.192510 6.469440 -0.000001 175.308000 20.994100 177.087000 -39.081100 -0.002282 -0.040193 -0.005777 0.029948 16.908300 -40.985400 0.000008 0.000006 -2.765460 1.796620 -62.543200 -11.754300 -0.000006 -0.000006 -0.003986 -0.051297 -18.659700
0.000000 0.000000 0.000000 0.000000 0.000000 -0.000000 -0.907763 92.300600 -1.056810 87.862800 0.545012 -0.574707 15.735700 0.000005 -0.000001 78.718700 87.525700 -78.557900 8.984550 -0.406207 -0.000000 -2.911820 -0.982669 0.296750 16.377300 -0.000001 -0.000001 -2.547830 -1.582160 -0.389557 6.456720 -0.000001 -0.000000 -3.833110 -0.900225 5.138170 12.994200 -0.242716 4.980390 -89.008300 -2.508190 -68.418100 5.348090 -0.000007 -0.000001 -64.558500 21.927900 -8.923770 24.328600 0.000019 0.000005 2.132980 4.225170 -26.817400 22.291600 -0.000001 0.000005 8.812390 5.557240 -9.052820 12.994500 -0.242716 -4.980390 88.041500 4.589540 -66.859800 -5.348130 -0.000001 -0.000004 -65.088500 13.410200 -6.665090 -24.328900 0.000322 -0.000009 0.111609 0.284433 -21.612700 -22.291500 -0.000108 -0.000004 10.319800 5.513310 -7.076830 -2.192480 -6.469440 -0.000000 -169.821000 -15.397800 -6.021240 39.081100 -0.000007 -0.000012 -0.153513 0.439805 19.241600 40.985400 -0.000006 -0.000013 -7.034400 0.454123 -62.016100 11.754300 -0.000000 0.000003 -0.000141 -0.001378 -16.630000 -2.192510 6.469440 -0.000001 175.431000 21.065800 176.947000 -39.081100 -0.002282 -0.040193 -0.004135 0.024582 16.884900 -40.985400 0.000008 0.000006 -2.620550 1.764240 -62.493400 -11.754300 -0.000006 -0.000006 -0.004050 -0.051956 -18.686500
0.000000 0.000000 0.000000 0.000000 0.000000 -0.000000 -0.926445 92.311500 -1.134540 87.839300 0.606247 -0.611542 15.735700 0.000005 -0.000001 77.945800 87.536500 -77.777600 8.984550 -0.406207 -0.000000 -2.946370 -1.044220 0.309605 16.377300 -0.000001 -0.000001 -2.754350 -1.477540 -0.380031 6.456720 -0.000001 -0.000000 -4.315320 -0.722858 5.142130 12.994200 -0.242716 4.980390 -88.853900 -2.882050 -68.303500 5.348090 -0.000007 -0.000001 -62.124000 17.576600 -9.423030 24.328600 0.000019 0.000005 2.131700 4.438400 -25.686100 22.291600 -0.000001 0.000005 9.144510 5.553500 -8.872710 12.994500 -0.242716 -4.980390 88.194400 4.172410 -66.573900 -5.348130 -0.000001 -0.000004 -62.877500 9.518400 -7.724220 -24.328900 0.000322 -0.000009 0.280182 0.765890 -20.173700 -22.291500 -0.000108 -0.000004 9.531780 5.492050 -6.210760 -2.192480 -6.469440 -0.000000 -169.819000 -15.384300 -6.124510 39.081100 -0.000007 -0.000012 -0.151217 0.433815 19.217500 40.985400 -0.000006 -0.000013 -7.021670 0.471777 -61.934900 11.754300 -0.000000 0.000003 -0.000125 -0.001243 -16.625000 -2.192510 6.469440 -0.000001 175.522000 21.122400 176.854000 -39.081100 -0.002282 -0.040193 -0.000231 0.011722 16.883900 -40.985400 0.000008 0.000006 -2.498320 1.722040 -62.456600 -11.754300 -0.000006 -0.000006 -0.004248 -0.053996 -18.769700
